<?xml version="1.0" encoding="UTF-8" standalone="no"?>
<svg
   xmlns:dc="http://purl.org/dc/elements/1.1/"
   xmlns:cc="http://creativecommons.org/ns#"
   xmlns:rdf="http://www.w3.org/1999/02/22-rdf-syntax-ns#"
   xmlns:svg="http://www.w3.org/2000/svg"
   xmlns="http://www.w3.org/2000/svg"
   xmlns:sodipodi="http://sodipodi.sourceforge.net/DTD/sodipodi-0.dtd"
   xmlns:inkscape="http://www.inkscape.org/namespaces/inkscape"
   width="190px"
   height="56px"
   viewBox="0 0 190 56"
   version="1.1"
   id="svg10"
   sodipodi:docname="humble.svg"
   inkscape:version="0.92.4 (5da689c313, 2019-01-14)">
  <metadata
     id="metadata14">
    <rdf:RDF>
      <cc:Work
         rdf:about="">
        <dc:format>image/svg+xml</dc:format>
        <dc:type
           rdf:resource="http://purl.org/dc/dcmitype/StillImage" />
      </cc:Work>
    </rdf:RDF>
  </metadata>
  <sodipodi:namedview
     pagecolor="#ffffff"
     bordercolor="#666666"
     borderopacity="1"
     objecttolerance="10"
     gridtolerance="10"
     guidetolerance="10"
     inkscape:pageopacity="0"
     inkscape:pageshadow="2"
     inkscape:window-width="1920"
     inkscape:window-height="1147"
     id="namedview12"
     showgrid="false"
     inkscape:zoom="11.313708"
     inkscape:cx="16.973303"
     inkscape:cy="20.85543"
     inkscape:window-x="-8"
     inkscape:window-y="-8"
     inkscape:window-maximized="1"
     inkscape:current-layer="svg10" />
  <!-- Generator: Sketch 43.2 (39069) - http://www.bohemiancoding.com/sketch -->
  <title
     id="title2">Humble_White</title>
  <desc
     id="desc4">Created with Sketch.</desc>
  <defs
     id="defs6" />
  <path
     id="Humble_White"
     style="fill:#000000;fill-rule:evenodd;stroke:none;stroke-width:1"
     d="M 17.28125,0.00195313 C 14.296674,0.05553777 11.183518,1.7249682 9.1015625,3.5253906 4.2279865,7.738248 0.36833185,15.24157 0,21.138672 c 0.42289953,0.1033 3.8144531,0.902344 3.8144531,0.902344 0,0 2.5621809,-11.552735 10.5722659,-11.552735 8.008944,0 -4.324219,43.732422 -4.324219,43.732422 h 8.328125 c 0,0 4.226017,-10.857914 6.349609,-24.265625 h 6.845704 c -0.395618,3.469544 -0.614621,7.046391 -0.556641,10.603516 0.320586,19.309304 11.694361,15.67009 16.820312,11.238281 1.641433,-1.419152 1.321645,-7.082015 1.615235,-11.208984 -1.762465,2.465848 -4.031146,4.24414 -6.900391,4.24414 -8.008944,0 4.324219,-43.4863279 4.324219,-43.4863279 h -8.328125 c 0,0 -3.532402,8.9662329 -5.761719,20.6953129 H 25.685547 C 25.87199,19.629178 25.959712,17.188154 25.919922,14.761719 25.729575,3.2974824 21.643323,-0.0763629 17.28125,0.00195313 Z"
     inkscape:connector-curvature="0"
     sodipodi:nodetypes="scccscccccscscccccs" />
</svg>
