<?xml version="1.0" encoding="UTF-8" standalone="no"?>
<!-- Created with Inkscape (http://www.inkscape.org/) -->

<svg
   xmlns:dc="http://purl.org/dc/elements/1.1/"
   xmlns:cc="http://creativecommons.org/ns#"
   xmlns:rdf="http://www.w3.org/1999/02/22-rdf-syntax-ns#"
   xmlns:svg="http://www.w3.org/2000/svg"
   xmlns="http://www.w3.org/2000/svg"
   xmlns:sodipodi="http://sodipodi.sourceforge.net/DTD/sodipodi-0.dtd"
   xmlns:inkscape="http://www.inkscape.org/namespaces/inkscape"
   width="153"
   height="144"
   viewBox="0 0 40.481251 38.100001"
   version="1.1"
   id="svg967"
   inkscape:export-filename="L:\Projects_2020\vr_schnaeppchen\src\flask_vrdeals\static\images\Humble_Bundle.png"
   inkscape:export-xdpi="96"
   inkscape:export-ydpi="96"
   inkscape:version="0.92.4 (5da689c313, 2019-01-14)"
   sodipodi:docname="humble_small.svg">
  <defs
     id="defs961" />
  <sodipodi:namedview
     id="base"
     pagecolor="#ffffff"
     bordercolor="#666666"
     borderopacity="1.0"
     inkscape:pageopacity="0.0"
     inkscape:pageshadow="2"
     inkscape:zoom="0.7"
     inkscape:cx="157.42692"
     inkscape:cy="284.88358"
     inkscape:document-units="mm"
     inkscape:current-layer="layer1"
     showgrid="false"
     units="px"
     inkscape:window-width="1920"
     inkscape:window-height="1147"
     inkscape:window-x="-8"
     inkscape:window-y="-8"
     inkscape:window-maximized="1" />
  <metadata
     id="metadata964">
    <rdf:RDF>
      <cc:Work
         rdf:about="">
        <dc:format>image/svg+xml</dc:format>
        <dc:type
           rdf:resource="http://purl.org/dc/dcmitype/StillImage" />
        <dc:title></dc:title>
      </cc:Work>
    </rdf:RDF>
  </metadata>
  <g
     inkscape:label="Ebene 1"
     inkscape:groupmode="layer"
     id="layer1"
     transform="translate(0,-258.89999)">
    <path
       id="Humble_White"
       style="fill:#000000;fill-rule:evenodd;stroke:none;stroke-width:0.44584098"
       d="m 16.925828,266.70101 c -1.406725,0.0226 -2.874052,0.72665 -3.855344,1.48594 -2.297069,1.77668 -4.1162444,4.94106 -4.2898521,7.42803 0.1993277,0.0435 1.7978711,0.38055 1.7978711,0.38055 0,0 1.207638,-4.87212 4.983043,-4.87212 3.774867,0 -2.038142,18.44324 -2.038142,18.44324 h 3.925307 c 0,0 1.991856,-4.57911 2.99277,-10.23352 h 3.226597 c -0.186469,1.4632 -0.289691,2.97166 -0.262364,4.47181 0.151098,8.14329 5.51192,6.60854 7.927941,4.7395 0.773659,-0.59849 0.62293,-2.98668 0.761308,-4.72715 -0.830705,1.03992 -1.900003,1.78988 -3.25237,1.78988 -3.774864,0 2.038141,-18.33946 2.038141,-18.33946 h -3.925307 c 0,0 -1.664931,3.78133 -2.715676,8.72782 h -3.352713 c 0.08788,-1.01714 0.129221,-2.0466 0.110462,-3.06989 -0.08971,-4.83481 -2.015694,-6.25765 -4.071676,-6.22463 z"
       inkscape:connector-curvature="0"
       sodipodi:nodetypes="scccscccccscscccccs" />
  </g>
</svg>
